<svg xmlns="http://www.w3.org/2000/svg" width="46" height="57" viewBox="0 0 46 57" fill="none">
    <path opacity="0.5" fill-rule="evenodd" clip-rule="evenodd" d="M37.976 40.4397L38 40.4757C38 40.4757 30.95 46.2994 28 50.8465C25.737 54.3341 25.026 56.997 23 57C20.974 57.003 20.263 54.3341 18 50.8465C15.05 46.2994 8 40.4757 8 40.4757L8.02401 40.4397C4.45794 37.3816 1.91441 33.3051 0.735609 28.7586C-0.443192 24.2122 -0.200708 19.4139 1.43043 15.0093C3.06157 10.6047 6.00312 6.80518 9.85933 4.12181C13.7155 1.43844 18.3014 0 23 0C27.6986 0 32.2845 1.43844 36.1407 4.12181C39.9969 6.80518 42.9384 10.6047 44.5696 15.0093C46.2007 19.4139 46.4432 24.2122 45.2644 28.7586C44.0856 33.3051 41.5421 37.3816 37.976 40.4397Z" fill="white"/>
    <path fill-rule="evenodd" clip-rule="evenodd" d="M35 38.9783V39.0073C35 39.0073 28.638 44.9148 26.908 47.4598C23.351 52.6917 23 55.0007 23 55.0007C23 55.0007 22.693 52.9176 19.174 47.5558C16.8 43.9403 11 39.0073 11 39.0073V38.9783C7.64188 36.4607 5.16133 32.9508 3.90973 28.9457C2.65812 24.9406 2.69892 20.6434 4.02634 16.6628C5.35375 12.6822 7.90048 9.21995 11.3058 6.76654C14.7111 4.31313 18.8023 2.99292 23 2.99292C27.1976 2.99292 31.2889 4.31313 34.6942 6.76654C38.0995 9.21995 40.6462 12.6822 41.9737 16.6628C43.3011 20.6434 43.3419 24.9406 42.0903 28.9457C40.8387 32.9508 38.3581 36.4607 35 38.9783Z" fill="#DF2C19"/>
    <path d="M23 35.009C29.6274 35.009 35 29.6386 35 23.0139C35 16.3891 29.6274 11.0187 23 11.0187C16.3726 11.0187 11 16.3891 11 23.0139C11 29.6386 16.3726 35.009 23 35.009Z" fill="white"/>
    <path d="M14 28.125L14.8745 29H15.749L16.6235 28.125V22.875L19.6842 19.8125V25.5H21.8704V15H20.9959L14 21.5625V28.125Z" fill="#E6281D"/>
    <path d="M32 28.125L31.1255 29H30.251L29.3765 28.125V22.875L26.3158 19.8125V25.5H24.1296V15H25.0041L32 21.5625V28.125Z" fill="#DF2C19"/>
    <path d="M14 28.125L14.8745 29H15.749L16.6235 28.125V22.875L19.6842 19.8125V25.5H21.8704V15H20.9959L14 21.5625V28.125Z" stroke="#E4291B"/>
    <path d="M32 28.125L31.1255 29H30.251L29.3765 28.125V22.875L26.3158 19.8125V25.5H24.1296V15H25.0041L32 21.5625V28.125Z" stroke="#E4291B"/>
</svg>
