<svg width="28" height="28" viewBox="0 0 28 28" fill="none" xmlns="http://www.w3.org/2000/svg">
<circle cx="14" cy="14" r="14" fill="#DF2C19"/>
<circle cx="14" cy="14" r="12.5" stroke="white"/>
<path fill-rule="evenodd" clip-rule="evenodd" d="M14 22C18.4183 22 22 18.4183 22 14C22 9.58172 18.4183 6 14 6C9.58172 6 6 9.58172 6 14C6 18.4183 9.58172 22 14 22ZM13.9999 19.6C17.0927 19.6 19.5999 17.0928 19.5999 14C19.5999 10.9072 17.0927 8.40004 13.9999 8.40004C10.9071 8.40004 8.39986 10.9072 8.39986 14C8.39986 17.0928 10.9071 19.6 13.9999 19.6Z" fill="white"/>
</svg>
