<svg width="30" height="30" viewBox="0 0 30 30" fill="none" xmlns="http://www.w3.org/2000/svg">
<path d="M13.8285 16.6391C13.5989 16.3456 13.4842 15.8726 13.4842 15.2202C13.4842 14.77 13.5607 14.359 13.7137 13.9872C13.8731 13.6088 14.1185 13.3054 14.4501 13.0771C14.7816 12.8487 15.2088 12.7346 15.7316 12.7346C15.8528 12.7346 15.958 12.7411 16.0472 12.7541C16.1429 12.7607 16.2544 12.7737 16.3819 12.7933L16.2863 14.3199C16.2226 15.305 16.0791 16.0128 15.8559 16.4434C15.6392 16.8675 15.2726 17.0795 14.7561 17.0795C14.3736 17.0795 14.0644 16.9327 13.8285 16.6391Z" fill="white"/>
<path fill-rule="evenodd" clip-rule="evenodd" d="M5 0C2.23858 0 0 2.23858 0 5V25C0 27.7614 2.23858 30 5 30H25C27.7614 30 30 27.7614 30 25V5C30 2.23858 27.7614 0 25 0H5ZM22.7609 15.9443C22.9203 15.3376 23 14.7211 23 14.0948C23 12.6334 22.6876 11.3743 22.0628 10.3174C21.4379 9.25403 20.5613 8.43527 19.4328 7.86116C18.3106 7.28705 16.994 7 15.483 7C14.1887 7 13.0187 7.21529 11.9731 7.64587C10.9339 8.07645 10.0412 8.67992 9.29528 9.45627C8.55569 10.2326 7.98824 11.1362 7.59295 12.167C7.19765 13.1978 7 14.3166 7 15.5235C7 17.0632 7.31241 18.3941 7.93724 19.5162C8.56844 20.6318 9.47699 21.4897 10.6629 22.0899C11.8488 22.6966 13.2769 23 14.9474 23C15.8209 23 16.6657 22.9184 17.4818 22.7554C18.3042 22.5923 19.0534 22.3639 19.7292 22.0703V19.8294C18.945 20.1164 18.1098 20.3447 17.2236 20.5144C16.3437 20.684 15.5403 20.7688 14.8135 20.7688C13.6595 20.7688 12.6968 20.5568 11.9253 20.1327C11.1538 19.7021 10.5736 19.0954 10.1847 18.3125C9.79578 17.5297 9.60131 16.613 9.60131 15.5627C9.60131 14.6363 9.72564 13.7849 9.9743 13.0086C10.2293 12.2322 10.6055 11.5602 11.1028 10.9927C11.6001 10.4186 12.2186 9.97492 12.9582 9.66177C13.6977 9.34862 14.5521 9.19205 15.5212 9.19205C16.6179 9.19205 17.5328 9.39103 18.266 9.78899C18.9992 10.187 19.5507 10.7513 19.9205 11.482C20.2903 12.2126 20.4752 13.0771 20.4752 14.0752C20.4752 14.6167 20.4306 15.1158 20.3413 15.5725C20.252 16.0292 20.1245 16.3945 19.9588 16.6685C19.793 16.9425 19.5921 17.0795 19.3562 17.0795C19.2224 17.0795 19.1108 17.0175 19.0215 16.8936C18.9323 16.7696 18.8876 16.5511 18.8876 16.2379C18.8876 16.0618 18.8908 15.8824 18.8972 15.6997C18.9036 15.517 18.9068 15.3898 18.9068 15.318L19.1076 11.1884C18.6995 11.0383 18.1863 10.9013 17.5678 10.7774C16.9558 10.6534 16.3309 10.5914 15.6934 10.5914C14.6286 10.5914 13.7328 10.7969 13.006 11.208C12.2791 11.6124 11.7276 12.167 11.3515 12.8716C10.9817 13.5696 10.7968 14.359 10.7968 15.2398C10.7968 16.4336 11.0964 17.3959 11.6958 18.1266C12.3015 18.8508 13.21 19.2128 14.4214 19.2128C14.9633 19.2128 15.4383 19.1019 15.8464 18.8801C16.2608 18.6518 16.6147 18.3745 16.908 18.0483H17.0514C17.2937 18.4267 17.6252 18.717 18.046 18.9193C18.4668 19.115 18.9099 19.2128 19.3754 19.2128C19.9619 19.2128 20.4816 19.0661 20.9342 18.7725C21.3869 18.4789 21.7663 18.0875 22.0723 17.5982C22.3784 17.1023 22.6079 16.5511 22.7609 15.9443Z" fill="white"/>
</svg>
