<svg width="14" height="18" viewBox="0 0 14 18" fill="none" xmlns="http://www.w3.org/2000/svg">
<path d="M6.9996 0C3.40047 0 0.494141 2.90633 0.494141 6.50546C0.494141 7.76037 0.895013 8.95863 1.45275 9.94334L5.69241 17.281C5.95821 17.7603 6.49416 18 6.9996 18C7.5051 18 8.01486 17.7603 8.3068 17.281L12.5465 9.94769C13.1086 8.9629 13.5051 7.78642 13.5051 6.50973C13.5051 2.91068 10.5987 0 6.9996 0ZM6.9996 8.42704C5.69241 8.42704 4.62487 7.35949 4.62487 6.0523C4.62487 4.74511 5.69241 3.67757 6.9996 3.67757C8.3068 3.67757 9.37434 4.74511 9.37434 6.0523C9.37434 7.36385 8.3068 8.42704 6.9996 8.42704Z" fill="#E02D1F"/>
</svg>
