<svg width="20" height="20" viewBox="0 0 20 20" fill="none" xmlns="http://www.w3.org/2000/svg">
<path fill-rule="evenodd" clip-rule="evenodd" d="M4.05908 0.865457C3.98473 0.904951 3.87068 1.00228 3.80564 1.08177L3.6874 1.22632L3.6763 3.25358L3.6652 5.28083H2.52166C1.24299 5.28083 1.07507 5.30373 0.724656 5.52565C0.458237 5.69446 0.28336 5.89642 0.134477 6.20738L0.0131886 6.46063L0.00224414 9.99464C-0.00494792 12.3119 0.00521478 13.6032 0.0317551 13.7453C0.133578 14.2905 0.524763 14.7275 1.08027 14.9167C1.27332 14.9824 1.41908 14.99 2.48038 14.99H3.66504L3.67622 16.8819L3.6874 18.7738L3.80564 18.9183C3.87068 18.9978 3.98473 19.0951 4.05908 19.1346C4.18904 19.2036 4.41993 19.2064 10 19.2064C15.5801 19.2064 15.811 19.2036 15.9409 19.1346C16.0153 19.0951 16.1293 18.9978 16.1944 18.9183L16.3126 18.7738L16.3238 16.8819L16.335 14.99H17.5196C18.5809 14.99 18.7267 14.9824 18.9197 14.9167C19.4752 14.7275 19.8664 14.2905 19.9682 13.7453C19.9948 13.6032 20.0049 12.3119 19.9978 9.99464L19.9868 6.46063L19.8655 6.20738C19.7166 5.89642 19.5418 5.69446 19.2753 5.52565C18.9249 5.30373 18.757 5.28083 17.4783 5.28083H16.3348L16.3237 3.25358L16.3126 1.22632L16.1944 1.08177C16.1293 1.00228 16.0153 0.904951 15.9409 0.865457C15.811 0.796486 15.5801 0.793701 10 0.793701C4.41993 0.793701 4.18904 0.796486 4.05908 0.865457ZM15.0032 3.69486V5.28083H10H4.99682V3.69486V2.10889H10H15.0032V3.69486ZM18.5992 6.67339C18.6762 6.74955 18.6774 6.80231 18.6774 10.1268C18.6774 13.1198 18.6705 13.5127 18.6165 13.5889C18.5561 13.6743 18.5484 13.6749 17.4463 13.6749H16.3368L16.3247 12.634L16.3126 11.593L16.1944 11.4485C16.1293 11.3691 16.0153 11.2718 15.9409 11.2323C15.811 11.1633 15.5801 11.1605 10 11.1605C4.41993 11.1605 4.18904 11.1633 4.05908 11.2323C3.98473 11.2718 3.87068 11.3691 3.80564 11.4485L3.6874 11.593L3.67528 12.634L3.6632 13.6749H2.55375C1.4516 13.6749 1.4439 13.6743 1.38347 13.5889C1.32953 13.5127 1.32261 13.1198 1.32261 10.1268C1.32261 6.80231 1.32383 6.74955 1.40079 6.67339C1.47849 6.59649 1.53107 6.59602 10 6.59602C18.4689 6.59602 18.5215 6.59649 18.5992 6.67339ZM13.6829 7.8981C13.4019 8.03515 13.2446 8.36031 13.322 8.64443C13.3742 8.83641 13.5344 9.02758 13.7004 9.09628C13.8606 9.16251 15.7172 9.17241 15.8899 9.108C16.0471 9.04932 16.2452 8.84783 16.2963 8.69441C16.3631 8.494 16.3089 8.24125 16.164 8.0779C15.9566 7.8441 15.8984 7.83373 14.7992 7.83474C13.9696 7.83547 13.7905 7.84565 13.6829 7.8981ZM15.0032 15.1835V17.8912H10H4.99682V15.1835V12.4757H10H15.0032V15.1835ZM6.85347 13.5363C6.70779 13.6006 6.53956 13.7753 6.48464 13.9191C6.37391 14.2091 6.5113 14.56 6.79328 14.7076L6.9635 14.7966H10H13.0365L13.2067 14.7076C13.4994 14.5544 13.6315 14.1929 13.5031 13.896C13.438 13.7455 13.2644 13.5786 13.1147 13.5226C12.937 13.4562 7.00548 13.4691 6.85347 13.5363ZM6.79328 15.6594C6.50055 15.8125 6.36851 16.174 6.49688 16.4709C6.56196 16.6214 6.73558 16.7883 6.88533 16.8443C6.95959 16.8721 7.97211 16.8855 10 16.8855C12.0279 16.8855 13.0404 16.8721 13.1147 16.8443C13.2644 16.7883 13.438 16.6214 13.5031 16.4709C13.6315 16.174 13.4994 15.8125 13.2067 15.6594L13.0365 15.5703H10H6.9635L6.79328 15.6594Z" fill="#E02D1F"/>
</svg>
