<svg width="20" height="20" viewBox="0 0 20 20" fill="none" xmlns="http://www.w3.org/2000/svg">
<path fill-rule="evenodd" clip-rule="evenodd" d="M11.3611 0.0665909C11.2079 0.134629 11.069 0.28128 11.01 0.437301C10.9811 0.513375 10.9655 1.15274 10.9655 2.259V3.96348H10.6762C9.62538 3.96348 8.20854 4.33119 7.05332 4.90368C2.66505 7.07834 -0.261277 12.5347 0.0184522 18.0207C0.0657955 18.9496 0.151363 19.5599 0.253336 19.6965C0.465611 19.9809 0.792724 20.0664 1.08919 19.9151C1.1845 19.8666 1.28981 19.7849 1.32324 19.7336C1.35664 19.6824 1.49475 19.3032 1.63016 18.891C2.31187 16.8157 3.22343 15.2841 4.59313 13.9128C6.28496 12.2189 8.23073 11.3135 10.4554 11.1847L10.9655 11.1552V12.8699C10.9655 14.4935 10.9699 14.5932 11.0475 14.7454C11.2109 15.0657 11.6679 15.2 11.9582 15.013C12.0754 14.9374 19.0897 8.6933 19.6215 8.19102C20.0142 7.82014 20.086 7.58688 19.9074 7.26235C19.8417 7.14272 18.7296 6.1229 16.1704 3.83523C11.982 0.0912824 11.9907 0.0988193 11.854 0.0468541C11.7114 -0.00735948 11.5092 0.000760118 11.3611 0.0665909ZM15.3534 4.90022L18.339 7.56493L18.1395 7.73898C18.0298 7.83471 16.6752 9.04457 15.1294 10.4275L12.3188 12.942L12.298 11.6485C12.278 10.4105 12.2732 10.3488 12.1863 10.2093C12.0345 9.96557 11.8936 9.9114 11.3038 9.87001C10.1394 9.78819 8.74959 9.99747 7.52192 10.4395C6.95397 10.644 6.03321 11.1067 5.49482 11.4582C3.97651 12.4496 2.64082 13.875 1.65123 15.5599C1.53019 15.766 1.43096 15.9118 1.43071 15.884C1.42938 15.7347 1.57603 14.8197 1.68084 14.3233C1.94853 13.0556 2.31041 12.0407 2.90422 10.8923C4.01044 8.7528 5.6493 7.08696 7.57197 6.1478C8.74689 5.5739 9.89678 5.29592 11.0961 5.29592C11.4024 5.29592 11.7174 5.27751 11.7959 5.25498C11.9846 5.20085 12.2055 4.98179 12.2565 4.79808C12.2791 4.71676 12.2976 4.10217 12.2977 3.42913C12.2978 2.75733 12.3137 2.21394 12.3329 2.2216C12.3521 2.22922 13.7113 3.43458 15.3534 4.90022Z" fill="#E02D1F"/>
</svg>
