<svg width="30" height="30" viewBox="0 0 30 30" fill="none" xmlns="http://www.w3.org/2000/svg">
<path fill-rule="evenodd" clip-rule="evenodd" d="M3.34675 0.0446667C1.70993 0.319867 0.304447 1.75879 0.0492345 3.42067C0.00693378 3.69611 -0.00749891 7.45208 0.00358962 15.2686L0.0198997 26.7133L0.185054 27.1828C0.646079 28.4932 1.52612 29.3736 2.83603 29.8348L3.30539 30H15.01H26.7145L27.1839 29.8343C28.5382 29.3561 29.472 28.3813 29.8923 27.0068C29.9952 26.6702 30 26.1385 30 14.9752V3.29572L29.8348 2.8262C29.3738 1.51581 28.4938 0.635447 27.1839 0.174256L26.7145 0.00904138L15.186 0.000707301C8.67852 -0.00398796 3.52212 0.0151452 3.34675 0.0446667ZM24.0242 7.85012C24.2145 7.96715 24.3971 8.27369 24.3971 8.47629C24.3971 8.63024 21.4767 21.5616 21.3949 21.7698C21.2515 22.1349 20.7108 22.3977 20.3234 22.2907C20.2135 22.2604 19.108 21.5462 17.8666 20.7036C16.6251 19.8609 15.5917 19.1716 15.5701 19.1716C15.5484 19.1716 15.0506 19.6282 14.4636 20.1863C13.1112 21.4724 13.1271 21.4605 12.7717 21.4605C12.5291 21.4605 12.4548 21.4314 12.2846 21.2698C12.1035 21.0977 12.0051 20.8462 11.2803 18.702C10.8383 17.3947 10.4472 16.2946 10.4112 16.2574C10.3752 16.2202 9.35568 15.921 8.14562 15.5926C6.1643 15.0548 5.9295 14.9783 5.78418 14.823C5.68315 14.7149 5.62283 14.5854 5.62283 14.4763C5.62283 14.0567 5.38751 14.1546 12.8978 11.4506C16.7216 10.0738 20.4706 8.72256 21.2289 8.44777C21.9872 8.17298 22.7925 7.88545 23.0183 7.80886C23.4741 7.65433 23.7222 7.66454 24.0242 7.85012ZM16.0403 13.0397C13.4286 14.5397 11.2707 15.8001 11.245 15.8406C11.2193 15.8811 11.1978 15.9824 11.1973 16.0656C11.1961 16.269 12.4552 19.9532 12.535 19.9799C12.611 20.0051 12.6288 19.902 12.7819 18.5553C12.848 17.9743 12.9147 17.4397 12.9303 17.3674C12.9489 17.2802 14.3161 16.1262 16.991 13.9398C19.2089 12.1269 21.0433 10.6146 21.0675 10.5792C21.1475 10.4617 21.0834 10.3388 20.935 10.3256C20.8347 10.3166 19.3025 11.1662 16.0403 13.0397Z" fill="white"/>
</svg>
