<svg width="30" height="30" viewBox="0 0 30 30" fill="none" xmlns="http://www.w3.org/2000/svg">
<path fill-rule="evenodd" clip-rule="evenodd" d="M22.7545 17.4326C22.4345 18.6965 20.7941 20.2679 19.4907 20.5582C17.7844 20.8826 16.0645 21.0213 14.3464 20.9737C14.3122 20.9728 14.2794 20.986 14.2556 21.0105L10.9541 24.3992C10.8297 24.5289 10.6111 24.4407 10.6111 24.2617V20.6792C10.6111 20.62 10.5688 20.5697 10.5107 20.5583L10.5097 20.5581C9.20633 20.2678 7.56655 18.6965 7.24596 17.4326C6.71275 14.9871 6.71275 12.508 7.24596 10.0624C7.56655 8.79854 9.20633 7.22722 10.5097 6.93692C13.4898 6.37013 16.5113 6.37013 19.4907 6.93692C20.7948 7.22722 22.4345 8.79854 22.7545 10.0624C23.2883 12.508 23.2883 14.9871 22.7545 17.4326ZM17.8358 19.0863C17.7712 19.0667 17.7076 19.0492 17.6451 19.0319C17.5137 18.9957 17.3873 18.9609 17.2671 18.911C15.4295 18.1486 13.7382 17.165 12.3985 15.6572C11.6367 14.7998 11.0404 13.8318 10.5364 12.8074C10.3221 12.3717 10.138 11.9208 9.95418 11.4707L9.89061 11.3152C9.7034 10.8578 9.97915 10.3853 10.2695 10.0407C10.542 9.71724 10.8926 9.46973 11.2723 9.28732C11.5686 9.14493 11.861 9.22702 12.0774 9.47822C12.5453 10.0213 12.9751 10.5922 13.3232 11.2217C13.5372 11.6089 13.4785 12.0822 13.0906 12.3457C13.0149 12.3972 12.9445 12.4558 12.8742 12.5144L12.8226 12.5573C12.7456 12.6207 12.6731 12.6847 12.6203 12.7706C12.5238 12.9276 12.5192 13.1129 12.5813 13.2836C13.0597 14.5981 13.8659 15.6202 15.1889 16.1707L15.2455 16.1945C15.4387 16.276 15.6349 16.3588 15.8571 16.3329C16.1214 16.302 16.2701 16.1036 16.4196 15.9039C16.5012 15.795 16.583 15.6857 16.684 15.6031C16.9638 15.3743 17.3213 15.3713 17.6227 15.562C17.9241 15.7528 18.2163 15.9576 18.5068 16.1645L18.5655 16.2064C18.8308 16.3952 19.0938 16.5823 19.3387 16.798C19.5916 17.0207 19.6786 17.3128 19.5363 17.6151C19.2756 18.1685 18.8963 18.629 18.3491 18.9229C18.2434 18.9796 18.1237 19.0101 18.0028 19.0409C17.947 19.0551 17.8909 19.0694 17.8358 19.0863ZM19.8066 12.6934C19.3835 10.317 17.4093 8.72179 15.0055 8.65444C14.992 8.65439 14.9785 8.65417 14.965 8.65395C14.932 8.65342 14.8989 8.65289 14.866 8.65471C14.6956 8.66386 14.5445 8.80638 14.5765 8.98536C14.6124 9.18703 14.8151 9.20747 14.9822 9.22432L15.0112 9.22728C15.0957 9.23615 15.1804 9.24347 15.2651 9.25079C15.4529 9.26701 15.6408 9.28325 15.8256 9.31622C17.6079 9.6341 19.0357 11.1155 19.2845 12.9061C19.3221 13.1767 19.3407 13.45 19.3592 13.7231L19.3593 13.7245C19.364 13.7933 19.3686 13.8622 19.3736 13.9309C19.3861 14.1037 19.4728 14.2649 19.6655 14.2626C19.852 14.2604 19.9499 14.0961 19.9364 13.9233L19.9248 13.7713C19.8973 13.4105 19.8698 13.0484 19.8066 12.6934ZM18.6556 13.4197C18.6525 13.4553 18.648 13.5073 18.6349 13.5569C18.5711 13.7983 18.2052 13.8285 18.1209 13.5849C18.096 13.5126 18.0922 13.4304 18.0921 13.3526C18.0912 12.8435 17.9806 12.3349 17.7239 11.8919C17.4599 11.4367 17.0567 11.054 16.5838 10.8224C16.2979 10.6824 15.9886 10.5953 15.6752 10.5435C15.5899 10.5294 15.5041 10.5187 15.4182 10.508C15.3662 10.5016 15.314 10.4951 15.2621 10.4879C15.0953 10.4647 15.0063 10.3584 15.0142 10.194C15.0215 10.04 15.1341 9.92921 15.302 9.93869C15.8536 9.97002 16.3864 10.0892 16.8768 10.3489C17.8741 10.8771 18.4438 11.7107 18.6101 12.8239C18.6128 12.8419 18.6161 12.8599 18.6193 12.8779C18.6252 12.9102 18.6311 12.9424 18.6335 12.9749C18.6402 13.0628 18.645 13.1507 18.6507 13.2524L18.6585 13.3899C18.6575 13.3975 18.6566 13.4077 18.6556 13.4197ZM16.8339 13.0396C16.8546 13.224 16.9623 13.3353 17.1634 13.3317C17.2549 13.3255 17.3488 13.262 17.3782 13.1352C17.3949 13.0635 17.388 12.9845 17.3814 12.9093L17.3808 12.9019C17.2857 11.8048 16.6197 11.323 15.6878 11.2557C15.5387 11.2449 15.4059 11.3514 15.3831 11.4879C15.3579 11.6378 15.4463 11.7673 15.6061 11.8064C15.6751 11.8233 15.7454 11.8297 15.8158 11.8362C15.8956 11.8434 15.9756 11.8507 16.054 11.8734C16.1702 11.9069 16.281 11.9588 16.3788 12.0301C16.5861 12.1811 16.717 12.4093 16.7774 12.6557C16.8038 12.7633 16.8159 12.8748 16.828 12.9857L16.8339 13.0396Z" fill="white"/>
<path fill-rule="evenodd" clip-rule="evenodd" d="M0.00195312 -9.15527e-05H30.002V29.9999H0.00195312V-9.15527e-05ZM24.4884 9.67017L24.4825 9.64647C24.0032 7.70915 21.8427 5.63029 19.8587 5.1978L19.8363 5.19319C16.6272 4.58099 13.3733 4.58099 10.1648 5.19319L10.1417 5.1978C8.15834 5.63029 5.99786 7.70915 5.51797 9.64647L5.5127 9.67017C4.92025 12.3757 4.92025 15.1194 5.5127 17.825L5.51797 17.8487C5.97738 19.7033 7.97698 21.6867 9.88699 22.2321V24.3947C9.88699 25.1774 10.8408 25.5618 11.3833 24.997L13.5744 22.7194C14.0496 22.746 14.5251 22.7608 15.0005 22.7608C16.616 22.7608 18.2321 22.6081 19.8363 22.302L19.8587 22.2974C21.8427 21.8649 24.0032 19.7861 24.4825 17.8487L24.4884 17.825C25.0808 15.1194 25.0808 12.3757 24.4884 9.67017Z" fill="white"/>
</svg>
