<svg width="30" height="30" viewBox="0 0 30 30" fill="none" xmlns="http://www.w3.org/2000/svg">
<path fill-rule="evenodd" clip-rule="evenodd" d="M10.486 22.4067L10.1653 22.2108L7.0557 23.0113L7.90192 20.0057L7.68594 19.6694C6.78725 18.27 6.31217 16.6467 6.31217 14.9751C6.31217 10.1778 10.2151 6.2748 15.0125 6.2748C19.8099 6.2748 23.7128 10.1778 23.7128 14.9751C23.7128 19.7725 19.8099 23.6755 15.0125 23.6755C13.4109 23.6755 11.8456 23.2367 10.486 22.4067ZM11.3893 10.0614L12.0692 10.0985C12.203 10.1058 12.3212 10.1885 12.3739 10.3119L13.3644 12.6291C13.4173 12.7528 13.395 12.896 13.3069 12.9978L12.4449 13.9951C12.375 14.076 12.3628 14.1912 12.412 14.286C13.5474 16.4731 15.6167 17.3398 16.2344 17.5569C16.3397 17.5938 16.4564 17.5588 16.5245 17.4705L17.4266 16.3011C17.5269 16.1711 17.7038 16.1277 17.8529 16.1964L20.1507 17.2555C20.3004 17.3245 20.3822 17.488 20.3477 17.6491L20.2391 18.1562C20.1167 18.7282 19.777 19.2342 19.2841 19.5495C18.6618 19.9475 17.8553 20.143 16.83 19.8531C13.6483 18.9534 11.8491 16.8469 10.8835 15.5303C9.91804 14.2138 9.54499 12.8972 9.78639 11.822C9.94826 11.1009 10.4753 10.5476 10.8049 10.2614C10.9663 10.1211 11.1758 10.0498 11.3893 10.0614Z" fill="white"/>
<path fill-rule="evenodd" clip-rule="evenodd" d="M0 0H30V30H0V0ZM5.9773 20.2834L4.50781 25.5025L9.89013 24.117C11.4495 24.992 13.2123 25.4528 15.0125 25.4528C20.7899 25.4528 25.4901 20.7526 25.4901 14.9751C25.4901 9.19771 20.7899 4.49744 15.0125 4.49744C9.23507 4.49744 4.5348 9.19771 4.5348 14.9751C4.5348 16.8515 5.03233 18.678 5.9773 20.2834Z" fill="white"/>
</svg>
