<svg width="30" height="30" viewBox="0 0 30 30" fill="none" xmlns="http://www.w3.org/2000/svg">
<path fill-rule="evenodd" clip-rule="evenodd" d="M18.3517 23.1272C18.2082 23.559 17.8922 23.7789 17.438 23.7742C17.0687 23.771 16.7692 23.6242 16.5224 23.3562C16.4947 23.3266 16.4183 23.2456 16.4183 23.2456V23.6946H15.3427V15.6932H16.4183V18.327C16.4183 18.327 16.4789 18.2058 16.5342 18.1433C16.7008 17.957 16.9035 17.8128 17.1537 17.7496C17.5664 17.6463 18.0423 17.774 18.2688 18.2565C18.4024 18.5416 18.4399 18.8457 18.4399 19.1551C18.4419 20.2735 18.4419 21.3919 18.4406 22.5103C18.4399 22.7197 18.4182 22.9264 18.3517 23.1272ZM17.3307 19.2045C17.3302 19.1205 17.3116 19.034 17.2848 18.9518C17.2759 18.9244 17.2661 18.8975 17.2557 18.8714C17.2004 18.7338 17.0819 18.6653 16.9331 18.6508C16.7587 18.6337 16.6191 18.7042 16.4927 18.8161C16.442 18.8602 16.419 18.9261 16.419 18.9261L16.4216 22.5663L17.2848 18.9518L17.3327 22.3768L17.333 22.1127V22.1115C17.3341 21.2634 17.3352 20.4155 17.3323 19.5679L17.3307 19.2045Z" fill="white"/>
<path d="M8.71512 23.6953H9.92768V16.838H11.1857V15.6939H7.45977V16.8406H8.71512V23.6953Z" fill="white"/>
<path d="M14.2671 23.6959V17.7859L13.1928 17.7885V22.1911C13.1928 22.2279 13.1928 22.274 13.1724 22.2997C13.0341 22.4781 12.8695 22.6269 12.6536 22.7059C12.466 22.7743 12.3166 22.6907 12.2771 22.4959C12.2613 22.4188 12.2606 22.3379 12.2606 22.2589C12.26 20.8074 12.256 17.8313 12.2541 17.7951H11.183L11.183 17.8429C11.1829 18.3095 11.1819 22.027 11.1843 22.7644C11.185 22.9764 11.2074 23.1871 11.2956 23.3839C11.3904 23.5972 11.5477 23.7321 11.7821 23.771C11.9539 23.8006 12.1217 23.7815 12.285 23.7255C12.6194 23.6103 12.8814 23.3931 13.1125 23.1324C13.1264 23.1167 13.141 23.1012 13.1612 23.0798L13.1934 23.0455V23.6959H14.2671Z" fill="white"/>
<path fill-rule="evenodd" clip-rule="evenodd" d="M21.1883 23.8336C21.7531 23.7506 22.1382 23.4478 22.3245 22.9021C22.4647 22.4933 22.4482 21.5973 22.4482 21.5974H21.3416V22.3564C21.3416 22.6217 21.127 22.8363 20.8624 22.8363C20.5971 22.8363 20.3825 22.6217 20.3825 22.3564V20.8798H22.4423C22.4423 20.8798 22.4541 19.8496 22.4456 19.3823C22.4423 19.1828 22.4272 18.9807 22.3863 18.7858C22.2797 18.2803 22.0078 17.8991 21.499 17.7319C21.3495 17.6826 21.1889 17.6569 21.0316 17.647C20.5083 17.6134 20.0501 17.7629 19.692 18.1638C19.378 18.5146 19.2687 18.9373 19.2681 19.3954L19.2672 19.7538C19.2652 20.5104 19.2633 21.2682 19.2707 22.0246C19.2733 22.2478 19.2983 22.4755 19.349 22.6928C19.4583 23.1595 19.7131 23.5261 20.1627 23.7289C20.4911 23.8777 20.8381 23.8849 21.1883 23.8336ZM20.8624 18.6555C21.127 18.6555 21.3416 18.8708 21.3416 19.1354V19.9642H20.3825V19.1354C20.3825 18.8708 20.5971 18.6555 20.8624 18.6555Z" fill="white"/>
<path d="M14.402 11.2822C14.6527 11.2822 14.8568 11.0782 14.8568 10.8274V7.61812C14.8568 7.36738 14.6527 7.16331 14.402 7.16331C14.1512 7.16331 13.9471 7.36731 13.9471 7.61812V10.8274C13.9471 11.0782 14.1512 11.2822 14.402 11.2822Z" fill="white"/>
<path fill-rule="evenodd" clip-rule="evenodd" d="M30.0011 0.00012207H0.00109863V30.0001H30.0011V0.00012207ZM21.3087 13.8467C17.1043 13.7565 12.8979 13.7565 8.69274 13.8467C7.23398 13.8776 6.0675 15.0704 6.0675 16.5299V23.0969C6.0675 24.5569 7.23398 25.7498 8.69274 25.7807C12.8979 25.8709 17.1043 25.8709 21.3087 25.7807C22.7681 25.7498 23.9346 24.5569 23.9346 23.0969V16.5299C23.9346 15.0705 22.7681 13.8776 21.3087 13.8467ZM10.9015 7.28529C10.6626 6.27805 10.1619 4.15173 10.1619 4.15173H8.9093C8.9093 4.15173 9.87171 7.34355 10.3021 8.76702C10.3176 8.8185 10.3247 8.87439 10.3247 8.9283L10.3242 12.1923H11.4793L11.4788 8.9283C11.4788 8.87439 11.486 8.8185 11.5014 8.76702C11.9318 7.34355 12.8942 4.15173 12.8942 4.15173H11.6416C11.6416 4.15173 11.1404 6.27805 10.9015 7.28529ZM20.0062 6.25297L20.0058 12.1936H18.9051L18.9064 11.5554C18.8677 11.5935 18.8308 11.6308 18.7948 11.6672C18.7176 11.7453 18.6445 11.8192 18.5666 11.8878C18.3643 12.0661 18.1351 12.199 17.867 12.2515C17.4553 12.332 17.1047 12.2018 16.9735 11.7755C16.9298 11.6335 16.9034 11.4805 16.9022 11.3322V6.25297H17.9947V10.7833C17.9947 10.8434 17.9995 10.9041 18.0101 10.9629C18.0432 11.1496 18.1812 11.2375 18.361 11.1752C18.5801 11.0993 18.7473 10.9476 18.8892 10.7688C18.9067 10.7466 18.9063 10.7076 18.9059 10.6731L18.9057 10.6581V6.25297H20.0062ZM12.8257 7.68046C12.8257 6.80995 13.5314 6.10427 14.4019 6.10427C15.2724 6.10427 15.9781 6.80995 15.9781 7.68046V10.7651C15.9781 11.6356 15.2724 12.3413 14.4019 12.3413C13.5314 12.3413 12.8257 11.6356 12.8257 10.7651V7.68046Z" fill="white"/>
</svg>
